<svg width="100" height="40" viewBox="0 0 100 40" fill="none" xmlns="http://www.w3.org/2000/svg">
<path d="M100 0H0V40H100V0Z" fill="#EC1D24"/>
<path d="M91.5671 31.364H96.25V36.4282H86.0189V3.70502H91.0671V30.864V31.364H91.5671ZM48.9776 20.1922L48.979 20.1915C50.6063 19.4007 51.8945 17.4804 51.8945 14.5987C51.8945 11.8612 50.9529 10.353 49.848 9.55197C48.7755 8.77435 47.6426 8.73272 47.3549 8.73477H47.3261H46.8261V9.23477V20.0808V20.5824L47.3277 20.5808C47.8822 20.579 48.445 20.4489 48.9776 20.1922ZM30.5389 26.3429L30.4741 26.9005H31.0356H34.4474H35.0112L34.9438 26.3407L33.2064 11.921L32.2134 11.9231L30.5389 26.3429ZM78.9998 17.4773H83.9642V22.6367H78.9998H78.4998V23.1367V30.8685V31.3685H78.9998H83.9642V36.4343H73.4532V6.36748L72.4593 6.28908L67.673 36.4356L61.4234 36.4538L61.3378 35.9422L60.9275 33.4893L59.682 26.0428L58.4354 18.588L58.0237 16.1246C57.9776 15.8485 57.941 15.6298 57.915 15.474C57.884 15.2882 57.8679 15.1919 57.8682 15.1941L57.8682 15.1941C57.8675 15.1898 57.8668 15.1855 57.866 15.1812L57.7345 15.2032L56.8729 15.2621V15.2637V15.3053L56.8798 15.3463C57.1512 16.9679 56.7792 18.6514 56.0893 20.1181C55.3979 21.5879 54.4097 22.7916 53.5139 23.4552L53.2333 23.663L53.3318 23.998L56.9893 36.4413H52.0549L49.225 25.6539L49.1115 25.2212L48.6689 25.286L47.2537 25.4931L46.8261 25.5557V25.9878V36.4336H46.8108V36.4395L36.1975 36.4338L35.5457 31.6789L35.4864 31.2468H35.0503H30.3176H29.8815L29.8223 31.6788L29.1697 36.4336H18.3493V20.6783L17.3562 20.5954L14.6918 36.4336H12.2951L9.59089 20.5942L8.59802 20.6783V36.4336H3.5V3.70961H10.3161L12.9685 20.7125L13.9562 20.7144L16.6793 3.71042H23.4933L23.4918 34.2259L24.4862 34.3002L29.0798 3.70679L36.3073 3.71018L40.7444 33.2233L41.7388 33.1494L41.7622 3.70951L42.2236 3.7094L44.3403 3.70903L46.4637 3.70895C46.7338 3.70899 46.9575 3.70908 47.1207 3.70915C47.3172 3.70923 47.426 3.70927 47.4229 3.70914L47.434 3.70962H47.445C52.7197 3.70962 55.1187 7.56582 55.8046 8.91995L56.7468 8.63149L56.1265 3.70962H61.299L64.0247 23.8183L65.0156 23.8191L67.7752 3.71039H83.9642V8.85974H78.9998H78.4998V9.35974V16.9773V17.4773H78.9998Z" fill="#FEFEFE" stroke="#FEFEFE"/>
</svg>
